<svg xmlns="http://www.w3.org/2000/svg" viewBox="0 0 512 512">
  <defs>
    <linearGradient id="grad" x1="0%" y1="0%" x2="100%" y2="100%">
      <stop offset="0%" style="stop-color:#6366f1;stop-opacity:1" />
      <stop offset="100%" style="stop-color:#4f46e5;stop-opacity:1" />
    </linearGradient>
  </defs>
  <circle cx="256" cy="256" r="240" fill="url(#grad)"/>
  <path d="M256 16c-44.4 0-85.7 12-120.9 32.8 45.3 16.3 84.4 46.1 112.5 84.7 28.1-38.6 67.2-68.4 112.5-84.7C341.7 28 300.4 16 256 16z" fill="#fff" opacity="0.9"/>
  <path d="M463.2 135.1c-16.3 45.3-46.1 84.4-84.7 112.5 38.6 28.1 68.4 67.2 84.7 112.5 20.8-35.2 32.8-76.5 32.8-120.9 0-38.8-9.2-75.5-25.5-107.8l-7.3 3.7z" fill="#fff" opacity="0.8"/>
  <path d="M48.8 135.1c-20.8 35.2-32.8 76.5-32.8 120.9 0 44.4 12 85.7 32.8 120.9 16.3-45.3 46.1-84.4 84.7-112.5-38.6-28.1-68.4-67.2-84.7-112.5l0 0z" fill="#fff" opacity="0.8"/>
  <path d="M256 496c44.4 0 85.7-12 120.9-32.8-45.3-16.3-84.4-46.1-112.5-84.7-28.1 38.6-67.2 68.4-112.5 84.7C170.3 484 211.6 496 256 496z" fill="#fff" opacity="0.9"/>
  <circle cx="256" cy="256" r="40" fill="#fff"/>
</svg>